# xmcd
#
# Track frame offsets: 
#        150
#        13165
#        24237
#        38480
#        51132
#        65430
#        77805
#        88627
#        102105
#        114382
#        125672
#        135645
#        141690
#        151852
#        163730
#        176785
#        187625
#        200735
#        214065
#        226807
#        240047
#        252715
#        265052
#        275860
#        298287
#        318495
#        330045
#        343830
#
# Disc length: 4680 seconds
#
# Revision: 4
# Processed by: cddbd v1.5.2PL0 Copyright (c) Steve Scherf et al.
# Submitted via: ExactAudioCopyFreeDBPlugin 1.0
#
DISCID=9512461c
DTITLE=Various Artist - Eat to the Beat:  The Dirtiest of Them Dirty 
DTITLE=Blues
DYEAR=2006
DGENRE=Risqué
TTITLE0=Annisteen Allen and Her Home Town Boys - I Want a Man (Who's Gon
TTITLE0=na Do Right)
TTITLE1=Dirty Red - Mother Fuyer
TTITLE2=Dinah Washington - Long John Blues
TTITLE3=Tom Archia and His All Stars - Fishin' Pole
TTITLE4=Cousin Joe with Pete Brown's Brooklyn Blue Blowers - Weddin' D
TTITLE4=ay Blues
TTITLE5=Amos Milburn - Hard Driving Blues
TTITLE6=Crown Prince Waterford - Move Your Hand, Baby
TTITLE7=Julia Lee and Her Boyfriends - Don't Come Too Soon
TTITLE8=Wynonie Harris - I Like My Baby's Pudding
TTITLE9=The Dominoes - Sixty Minute Man
TTITLE10=Moose Jackson with Tiny Bradshaw's Orchestra - Big Ten-Inch R
TTITLE10=ecord
TTITLE11=The Clovers - Rotten Cocksucker's Ball
TTITLE12=Dave Bartholomew and His Orchestra - My Ding-A-Ling
TTITLE13=The Treniers - Poon-Tang!
TTITLE14=Jesse Powell and His Orchestra with Fluffy Hunter - The Walkin'
TTITLE14=Blues (Walk Right In, Walk Right Out)
TTITLE15=The "5" Royales with Charlie "Little Jazz" Ferguson and His Orc
TTITLE15=hestra - Laundromat Blues
TTITLE16=Wynonie Harris with Todd Rhodes Orchestra - Keep On Churnin'
TTITLE17=Dinah Washington - Big Long Slidin' Thing
TTITLE18=The Blenders - Don't Fuck Around with Love
TTITLE19=Dorothy Ellis - Drill Daddy Drill
TTITLE20=The Royals - Work with Me, Annie
TTITLE21=The Toppers - (I Love to Play Your Piano) Let Me Bang Your Bo
TTITLE21=x
TTITLE22=Jackie Wilson and LaVern Baker - Think Twice (Version X)
TTITLE23=Snatch and The Poontangs with The Mouth - Two-Time Slim
TTITLE24=Chick Willis - Stoop Down Baby
TTITLE25=Boozoo Chavis - L.A. Women Love Uncle Bud
TTITLE26=Screamin' Jay Hawkins - Bite It
TTITLE27=The Fred Wolff Combo - Somebody Else Was Suckin' My Dick Last
TTITLE27=Night
EXTD=Compilation produced by Dave Booth.\nDisc/metalpart transfers: Da
EXTD=ve Booth\nMastering: Jürgen Crasser\nCD: Bear Family BCD 16816 AS
EXTD=(2006-09-16), EAN 4000127168160, ISBN 3-89916-217-X.
EXTT0=(Lucius Millinder/Eli Thompson)
EXTT1=(Nelson Wilburn)
EXTT2=(Tommy George)
EXTT3=(Bennett)
EXTT4=(Pleasant Joseph/T. Reig)
EXTT5=
EXTT6=(Charles Waterford)
EXTT7=(Johnny Gomez/Richard Elliot)
EXTT8=(Mann/Bernard)
EXTT9=(Ward/Marks)
EXTT10=(Fred Weismantel)
EXTT11=
EXTT12=(Dave Bartholomew/Rhodes)
EXTT13=(Richard Adler/Jerry Ross)
EXTT14=(Jesse Powell/Ralph Bass)
EXTT15=(P. Medley)
EXTT16=(Juanita Harrison/Henry Glover/Lois Mann)
EXTT17=(Thomas/Kirkland)
EXTT18=(Joseph W. Burns/C. Metruis)
EXTT19=(Darnell/Delagarde)
EXTT20=(Hank Ballard)
EXTT21=(T. McCrea/S. Wyche)
EXTT22=(Eddie Singleton)
EXTT23=
EXTT24=(R. Willis)
EXTT25=(Chavis)
EXTT26=(Mar-Keys)
EXTT27=
PLAYORDER=
